<?xml version="1.0" encoding="UTF-8"?>
<svg id="Layer_1" xmlns="http://www.w3.org/2000/svg" version="1.1" viewBox="0 0 153 137">
  <!-- Generator: Adobe Illustrator 30.1.0, SVG Export Plug-In . SVG Version: 2.1.1 Build 136)  -->
  <defs>
    <style>
      .st0 {
        fill: #cf0;
      }
    </style>
  </defs>
  <path class="st0" d="M50.5,112.9l-3.7,4.7,8.4,13.2-.9,6.1h35.6l2.5-6.1-14.3-17.9s-27.6,0-27.6,0Z"/>
  <path class="st0" d="M69.9,32.6l-12.9,22.7,62.9,74.8-1.8,6.9h28.8l5.2-24.3L84.9,32.5h-15Z"/>
  <path class="st0" d="M78.5,15.5l-6.1,11.3h15.2l26.1,31.2,15.5-12.8v-8.1l-5.4-7.6,4-4.2L96.7.6l-18.2,14.9Z"/>
  <path class="st0" d="M31.7,78.7h-8.5L.8,107.3v29.6h24l4.2-5.5,18.5-24.1h26.8l8.3-12.7-29.1-34.7-21.9,18.9h0Z"/>
</svg>